<svg width="178" height="68" viewBox="0 0 178 68" fill="none" xmlns="http://www.w3.org/2000/svg">
<path d="M115.917 8.573L115.745 7.08284L115.917 8.573ZM169.917 60.573L170.676 43.2692L155.311 51.2631L169.917 60.573ZM6.8596 9.96571C6.6817 9.89455 6.60873 9.81366 6.68646 9.88022C6.73389 9.92083 6.81497 9.99738 6.93533 10.1236C7.17451 10.3745 7.49699 10.7455 7.90678 11.2415C8.72337 12.2299 9.81447 13.6263 11.1531 15.353C13.8206 18.7937 17.4277 23.4892 21.6299 28.6344C30.0138 38.8994 40.868 51.0826 51.5385 58.789L53.2949 56.357C42.9654 48.8968 32.3196 36.9799 23.9534 26.7366C19.7807 21.6276 16.2003 16.9668 13.524 13.5149C12.1908 11.7952 11.0709 10.3612 10.2196 9.3307C9.79536 8.81726 9.4196 8.38172 9.10654 8.05339C8.95078 7.89003 8.79224 7.73383 8.63782 7.60159C8.5137 7.49529 8.27667 7.30145 7.97377 7.18028L6.8596 9.96571ZM51.5385 58.789C54.4193 60.8696 57.3503 61.6998 60.3023 61.4319C63.214 61.1676 65.989 59.8495 68.6268 57.9245C73.861 54.1048 78.9676 47.5774 84.0343 40.7117C89.1634 33.7617 94.2924 26.4052 99.6833 20.5734C105.101 14.7129 110.511 10.7051 116.088 10.0632L115.745 7.08284C109.037 7.85494 102.992 12.575 97.4804 18.537C91.9427 24.5275 86.67 32.0881 81.6205 38.9303C76.5087 45.857 71.6599 51.9972 66.8583 55.5012C64.4783 57.2381 62.2154 58.2459 60.0311 58.4442C57.887 58.6388 55.6641 58.068 53.2949 56.357L51.5385 58.789ZM116.088 10.0632C125.537 8.97564 134.746 14.5396 142.914 22.7401C151.033 30.8924 157.821 41.3515 162.384 49.3411L164.989 47.8534C160.373 39.7713 153.432 29.0493 145.039 20.623C136.695 12.2449 126.609 5.8325 115.745 7.08284L116.088 10.0632Z" fill="#FF5781"/>
<g filter="url(#filter0_f_40_6451)">
<path d="M115.917 8.573L115.745 7.08284L115.917 8.573ZM169.917 60.573L170.676 43.2692L155.311 51.2631L169.917 60.573ZM6.8596 9.96571C6.6817 9.89455 6.60873 9.81366 6.68646 9.88022C6.73389 9.92083 6.81497 9.99738 6.93533 10.1236C7.17451 10.3745 7.49699 10.7455 7.90678 11.2415C8.72337 12.2299 9.81447 13.6263 11.1531 15.353C13.8206 18.7937 17.4277 23.4892 21.6299 28.6344C30.0138 38.8994 40.868 51.0826 51.5385 58.789L53.2949 56.357C42.9654 48.8968 32.3196 36.9799 23.9534 26.7366C19.7807 21.6276 16.2003 16.9668 13.524 13.5149C12.1908 11.7952 11.0709 10.3612 10.2196 9.3307C9.79536 8.81726 9.4196 8.38172 9.10654 8.05339C8.95078 7.89003 8.79224 7.73383 8.63782 7.60159C8.5137 7.49529 8.27667 7.30145 7.97377 7.18028L6.8596 9.96571ZM51.5385 58.789C54.4193 60.8696 57.3503 61.6998 60.3023 61.4319C63.214 61.1676 65.989 59.8495 68.6268 57.9245C73.861 54.1048 78.9676 47.5774 84.0343 40.7117C89.1634 33.7617 94.2924 26.4052 99.6833 20.5734C105.101 14.7129 110.511 10.7051 116.088 10.0632L115.745 7.08284C109.037 7.85494 102.992 12.575 97.4804 18.537C91.9427 24.5275 86.67 32.0881 81.6205 38.9303C76.5087 45.857 71.6599 51.9972 66.8583 55.5012C64.4783 57.2381 62.2154 58.2459 60.0311 58.4442C57.887 58.6388 55.6641 58.068 53.2949 56.357L51.5385 58.789ZM116.088 10.0632C125.537 8.97564 134.746 14.5396 142.914 22.7401C151.033 30.8924 157.821 41.3515 162.384 49.3411L164.989 47.8534C160.373 39.7713 153.432 29.0493 145.039 20.623C136.695 12.2449 126.609 5.8325 115.745 7.08284L116.088 10.0632Z" fill="#FF5781"/>
</g>
<defs>
<filter id="filter0_f_40_6451" x="0.255579" y="0.526636" width="176.821" height="67.354" filterUnits="userSpaceOnUse" color-interpolation-filters="sRGB">
<feFlood flood-opacity="0" result="BackgroundImageFix"/>
<feBlend mode="normal" in="SourceGraphic" in2="BackgroundImageFix" result="shape"/>
<feGaussianBlur stdDeviation="3.2" result="effect1_foregroundBlur_40_6451"/>
</filter>
</defs>
</svg>
