<svg width="164" height="48" viewBox="0 0 164 48" fill="none" xmlns="http://www.w3.org/2000/svg">
<path d="M47.5 36.3677L47.6715 37.8579L47.5 36.3677ZM8.5 10L8.11963 27.3163L23.3062 18.9876L8.5 10ZM156.557 34.975C154.515 34.1582 129.95 25.2627 109.128 10.2247L107.372 12.6567C128.55 27.952 153.485 36.9772 155.443 37.7604L156.557 34.975ZM109.128 10.2247C103.505 6.16345 98.1383 5.56319 92.9292 7.10077C87.8517 8.59949 83.0134 12.1054 78.2638 15.9958C73.4277 19.957 68.6912 24.306 63.5434 27.9192C58.4313 31.5073 53.1169 34.2113 47.3285 34.8775L47.6715 37.8579C54.1688 37.11 59.966 34.0953 65.2669 30.3747C70.532 26.6792 75.5098 22.1295 80.1648 18.3166C84.9062 14.4329 89.3358 11.2894 93.7784 9.97805C98.0894 8.70558 102.495 9.13462 107.372 12.6567L109.128 10.2247ZM47.3285 34.8775C31.7055 36.6757 21.8837 28.543 16.1926 20.938L13.7906 22.7354C19.8604 30.8464 30.6173 39.8208 47.6715 37.8579L47.3285 34.8775Z" fill="#5CCAFD"/>
<g filter="url(#filter0_f_40_6432)">
<path d="M47.75 38.9407L47.9215 40.4309L47.75 38.9407ZM7.75 8.77014L6.69246 26.0583L22.1932 18.3301L7.75 8.77014ZM156.807 37.548C154.945 36.803 132.302 25.4092 111.378 10.2977L109.622 12.7298C130.698 27.9516 153.555 39.4785 155.693 40.3335L156.807 37.548ZM111.378 10.2977C105.716 6.20866 100.199 5.79672 94.8195 7.57921C89.572 9.31798 84.4949 13.1312 79.4991 17.331C74.42 21.6008 69.4255 26.2663 64.0904 30.1126C58.7822 33.9395 53.35 36.7863 47.5785 37.4506L47.9215 40.4309C54.4357 39.6811 60.3651 36.4967 65.8448 32.5461C71.2977 28.6149 76.5175 23.7567 81.4295 19.6274C86.4247 15.4282 91.1155 11.967 95.7631 10.4269C100.279 8.93063 104.784 9.23549 109.622 12.7298L111.378 10.2977ZM47.5785 37.4506C31.2787 39.3266 20.9132 29.0757 15.0302 20.0324L12.5155 21.6683C18.6407 31.0839 29.9364 42.5009 47.9215 40.4309L47.5785 37.4506Z" fill="#5CCAFD"/>
</g>
<defs>
<filter id="filter0_f_40_6432" x="0.292444" y="0.176416" width="162.915" height="46.9002" filterUnits="userSpaceOnUse" color-interpolation-filters="sRGB">
<feFlood flood-opacity="0" result="BackgroundImageFix"/>
<feBlend mode="normal" in="SourceGraphic" in2="BackgroundImageFix" result="shape"/>
<feGaussianBlur stdDeviation="3.2" result="effect1_foregroundBlur_40_6432"/>
</filter>
</defs>
</svg>
