<svg width="178" height="68" viewBox="0 0 178 68" fill="none" xmlns="http://www.w3.org/2000/svg">
<path d="M62.0833 59.427L62.2548 60.9172L62.0833 59.427ZM8.08328 7.427L7.32353 24.7308L22.689 16.7369L8.08328 7.427ZM171.14 58.0343C171.318 58.1054 171.391 58.1863 171.314 58.1198C171.266 58.0792 171.185 58.0026 171.065 57.8764C170.825 57.6255 170.503 57.2545 170.093 56.7585C169.277 55.7701 168.186 54.3737 166.847 52.647C164.179 49.2063 160.572 44.5108 156.37 39.3656C147.986 29.1006 137.132 16.9174 126.462 9.21098L124.705 11.643C135.035 19.1032 145.68 31.0201 154.047 41.2634C158.219 46.3724 161.8 51.0332 164.476 54.4851C165.809 56.2048 166.929 57.6388 167.78 58.6693C168.205 59.1827 168.58 59.6183 168.893 59.9466C169.049 60.11 169.208 60.2662 169.362 60.3984C169.486 60.5047 169.723 60.6986 170.026 60.8197L171.14 58.0343ZM126.462 9.21098C123.581 7.13036 120.65 6.30021 117.698 6.56812C114.786 6.83239 112.011 8.15046 109.373 10.0755C104.139 13.8952 99.0324 20.4226 93.9656 27.2883C88.8366 34.2383 83.7075 41.5948 78.3166 47.4266C72.8992 53.2871 67.4892 57.2949 61.9118 57.9368L62.2548 60.9172C68.9631 60.1451 75.0084 55.425 80.5196 49.463C86.0572 43.4725 91.33 35.9119 96.3795 29.0697C101.491 22.143 106.34 16.0028 111.142 12.4988C113.522 10.7619 115.785 9.75408 117.969 9.55584C120.113 9.36125 122.336 9.93198 124.705 11.643L126.462 9.21098ZM61.9118 57.9368C52.463 59.0244 43.2538 53.4604 35.0862 45.2599C26.9665 37.1076 20.1791 26.6485 15.6163 18.6589L13.0112 20.1466C17.6268 28.2287 24.5681 38.9507 32.9606 47.377C41.3051 55.7551 51.3914 62.1675 62.2548 60.9172L61.9118 57.9368Z" fill="#49E88B"/>
<g filter="url(#filter0_f_40_6414)">
<path d="M62.0833 59.427L62.2548 60.9172L62.0833 59.427ZM8.08328 7.427L7.32353 24.7308L22.689 16.7369L8.08328 7.427ZM171.14 58.0343C171.318 58.1054 171.391 58.1863 171.314 58.1198C171.266 58.0792 171.185 58.0026 171.065 57.8764C170.825 57.6255 170.503 57.2545 170.093 56.7585C169.277 55.7701 168.186 54.3737 166.847 52.647C164.179 49.2063 160.572 44.5108 156.37 39.3656C147.986 29.1006 137.132 16.9174 126.462 9.21098L124.705 11.643C135.035 19.1032 145.68 31.0201 154.047 41.2634C158.219 46.3724 161.8 51.0332 164.476 54.4851C165.809 56.2048 166.929 57.6388 167.78 58.6693C168.205 59.1827 168.58 59.6183 168.893 59.9466C169.049 60.11 169.208 60.2662 169.362 60.3984C169.486 60.5047 169.723 60.6986 170.026 60.8197L171.14 58.0343ZM126.462 9.21098C123.581 7.13036 120.65 6.30021 117.698 6.56812C114.786 6.83239 112.011 8.15046 109.373 10.0755C104.139 13.8952 99.0324 20.4226 93.9656 27.2883C88.8366 34.2383 83.7075 41.5948 78.3166 47.4266C72.8992 53.2871 67.4892 57.2949 61.9118 57.9368L62.2548 60.9172C68.9631 60.1451 75.0084 55.425 80.5196 49.463C86.0572 43.4725 91.33 35.9119 96.3795 29.0697C101.491 22.143 106.34 16.0028 111.142 12.4988C113.522 10.7619 115.785 9.75408 117.969 9.55584C120.113 9.36125 122.336 9.93198 124.705 11.643L126.462 9.21098ZM61.9118 57.9368C52.463 59.0244 43.2538 53.4604 35.0862 45.2599C26.9665 37.1076 20.1791 26.6485 15.6163 18.6589L13.0112 20.1466C17.6268 28.2287 24.5681 38.9507 32.9606 47.377C41.3051 55.7551 51.3914 62.1675 62.2548 60.9172L61.9118 57.9368Z" fill="#49E88B"/>
</g>
<defs>
<filter id="filter0_f_40_6414" x="0.923532" y="0.119409" width="176.821" height="67.354" filterUnits="userSpaceOnUse" color-interpolation-filters="sRGB">
<feFlood flood-opacity="0" result="BackgroundImageFix"/>
<feBlend mode="normal" in="SourceGraphic" in2="BackgroundImageFix" result="shape"/>
<feGaussianBlur stdDeviation="3.2" result="effect1_foregroundBlur_40_6414"/>
</filter>
</defs>
</svg>
