<svg width="164" height="48" viewBox="0 0 164 48" fill="none" xmlns="http://www.w3.org/2000/svg">
<g filter="url(#filter0_f_40_6434)">
<path d="M47.75 38.9407L47.9215 40.4309L47.75 38.9407ZM7.75 8.77014L6.69246 26.0583L22.1932 18.3301L7.75 8.77014ZM156.807 37.548C154.945 36.803 132.302 25.4092 111.378 10.2977L109.622 12.7298C130.698 27.9516 153.555 39.4785 155.693 40.3335L156.807 37.548ZM111.378 10.2977C105.716 6.20866 100.199 5.79672 94.8195 7.57921C89.572 9.31798 84.4949 13.1312 79.4991 17.331C74.42 21.6008 69.4255 26.2663 64.0904 30.1126C58.7822 33.9395 53.35 36.7863 47.5785 37.4506L47.9215 40.4309C54.4357 39.6811 60.3651 36.4967 65.8448 32.5461C71.2977 28.6149 76.5175 23.7567 81.4295 19.6274C86.4247 15.4282 91.1155 11.967 95.7631 10.4269C100.279 8.93063 104.784 9.23549 109.622 12.7298L111.378 10.2977ZM47.5785 37.4506C31.2787 39.3266 20.9132 29.0757 15.0302 20.0324L12.5155 21.6683C18.6407 31.0839 29.9364 42.5009 47.9215 40.4309L47.5785 37.4506Z" fill="#5CCAFD"/>
</g>
<defs>
<filter id="filter0_f_40_6434" x="0.292444" y="0.176416" width="162.915" height="46.9002" filterUnits="userSpaceOnUse" color-interpolation-filters="sRGB">
<feFlood flood-opacity="0" result="BackgroundImageFix"/>
<feBlend mode="normal" in="SourceGraphic" in2="BackgroundImageFix" result="shape"/>
<feGaussianBlur stdDeviation="3.2" result="effect1_foregroundBlur_40_6434"/>
</filter>
</defs>
</svg>
